<svg xmlns="http://www.w3.org/2000/svg" xmlns:xlink="http://www.w3.org/1999/xlink" viewBox="0 0 100.71 95.65">
  <defs>
    <style>
      .cls-1 { fill: url(#linear-gradient); }
      .cls-2 { fill: url(#linear-gradient-2); }
      .cls-3 { fill: url(#linear-gradient-3); }
      .cls-4 { fill: url(#linear-gradient-4); }
      .cls-5 { fill: url(#linear-gradient-5); }
      .cls-6 { fill: url(#linear-gradient-7); }
      .cls-7 { fill: url(#linear-gradient-8); }
      .cls-8 { fill: url(#linear-gradient-9); }
      .cls-9 { fill: url(#linear-gradient-10); }
      .cls-10 { fill: url(#linear-gradient-11); }
    </style>
    <linearGradient id="linear-gradient" x1="39.55" y1="47.82" x2="100.71" y2="47.82" gradientUnits="userSpaceOnUse">
      <stop offset="0" stop-color="#7f2bff"/>
      <stop offset="1" stop-color="#d230ff"/>
    </linearGradient>
    <linearGradient id="linear-gradient-2" y1="68.34" x2="50.36" y2="68.34" gradientUnits="userSpaceOnUse">
      <stop offset="0" stop-color="#231772"/>
      <stop offset="0.64" stop-color="#7e29ce"/>
      <stop offset="1" stop-color="#ae32ff"/>
    </linearGradient>
    <linearGradient id="linear-gradient-3" x1="12.45" y1="93.57" x2="45.14" y2="28.78" xlink:href="#linear-gradient-2"/>
    <linearGradient id="linear-gradient-4" x1="9.37" y1="98.77" x2="39.66" y2="34.78" gradientUnits="userSpaceOnUse">
      <stop offset="0" stop-color="#231772"/>
      <stop offset="0.1" stop-color="#351b85"/>
      <stop offset="0.4" stop-color="#6925b9"/>
      <stop offset="0.66" stop-color="#8f2cdf"/>
      <stop offset="0.87" stop-color="#a630f6"/>
      <stop offset="1" stop-color="#ae32ff"/>
    </linearGradient>
    <linearGradient id="linear-gradient-5" x1="0" y1="68.77" x2="81.93" y2="68.77" xlink:href="#linear-gradient"/>
    <linearGradient id="linear-gradient-7" x1="68.11" y1="49.29" x2="53.67" y2="26.22" xlink:href="#linear-gradient-4"/>
    <linearGradient id="linear-gradient-8" x1="61.66" y1="53.46" x2="36.78" y2="4.92" xlink:href="#linear-gradient-4"/>
    <linearGradient id="linear-gradient-9" x1="68.65" y1="55.93" x2="87.91" y2="91.43" xlink:href="#linear-gradient-4"/>
    <linearGradient id="linear-gradient-10" x1="59.14" y1="46.62" x2="102.17" y2="126.96" xlink:href="#linear-gradient-4"/>
    <linearGradient id="linear-gradient-11" y1="68.77" x2="76.09" y2="68.77" gradientUnits="userSpaceOnUse">
      <stop offset="0" stop-color="#7f2bff"/>
      <stop offset="1" stop-color="#fd71ff"/>
    </linearGradient>
  </defs>
  <g id="Layer_2" data-name="Layer 2">
    <g id="OBJECTS">
      <polygon class="cls-1" points="75.54 47.82 50.36 0 39.55 20.52 53.93 47.82 79.11 95.65 100.71 95.65 75.54 47.82"/>
      <polygon class="cls-2" points="28.75 41.03 25.18 47.82 0 95.65 21.61 95.65 46.78 47.82 50.36 41.03 28.75 41.03"/>
      <polygon class="cls-3" points="28.75 41.03 25.18 47.82 0 95.65 21.61 95.65 46.78 47.82 50.36 41.03 28.75 41.03"/>
      <polygon class="cls-4" points="9.18 93.82 34.36 46 36.97 41.03 28.75 41.03 25.18 47.82 0 95.65 21.61 95.65 22.56 93.82 9.18 93.82"/>
      <path class="cls-5" d="M0,95.65C13.74,69.55,38.33,48,63.84,43.11a83.52,83.52,0,0,1,8.58-1.21L81.93,60a66.08,66.08,0,0,0-6.72.43c-20.87,2.32-42.4,14-53.61,35.26Z"/>
      <path class="cls-5" d="M0,95.65C13.74,69.55,38.33,48,63.84,43.11a83.52,83.52,0,0,1,8.58-1.21L81.93,60a66.08,66.08,0,0,0-6.72.43c-20.87,2.32-42.4,14-53.61,35.26Z"/>
      <path class="cls-6" d="M63.84,43.11a83.52,83.52,0,0,1,8.58-1.21L50.36,0,39.55,20.52,53.06,46.18A67.4,67.4,0,0,1,63.84,43.11Z"/>
      <path class="cls-7" d="M44.61,10.91l-5.06,9.61L53.06,46.18a68.78,68.78,0,0,1,8.74-2.63Z"/>
      <path class="cls-8" d="M81.93,60a66.08,66.08,0,0,0-6.72.43A73.78,73.78,0,0,0,62,63.12L79.11,95.65h21.6Z"/>
      <path class="cls-9" d="M62,63.12,79.11,95.65H91.37L73,60.7A73.39,73.39,0,0,0,62,63.12Z"/>
      <path class="cls-10" d="M69.05,49.93q3.51-.68,7-1l-3.67-7a83.52,83.52,0,0,0-8.58,1.21C38.33,48,13.74,69.55,0,95.65H9.12C23.32,72.68,45.8,54.39,69.05,49.93Z"/>
    </g>
  </g>
</svg>
